{
  "asset": {
    "generator": "Khronos glTF Blender I/O v4.0.44",
    "version": "2.0"
  },
  "scene": 0,
  "scenes": [
    {
      "name": "Scene",
      "nodes": [
        0
      ]
    }
  ],
  "nodes": [
    {
      "mesh": 0,
      "name": "barrel_stove"
    }
  ],
  "materials": [
    {
      "doubleSided": true,
      "name": "barrel_stove",
      "normalTexture": {
        "index": 0
      },
      "pbrMetallicRoughness": {
        "baseColorTexture": {
          "index": 1
        },
        "metallicRoughnessTexture": {
          "index": 2
        }
      }
    }
  ],
  "meshes": [
    {
      "name": "Cylinder.007",
      "primitives": [
        {
          "attributes": {
            "POSITION": 0,
            "NORMAL": 1,
            "TEXCOORD_0": 2
          },
          "indices": 3,
          "material": 0
        }
      ]
    }
  ],
  "textures": [
    {
      "sampler": 0,
      "source": 0
    },
    {
      "sampler": 0,
      "source": 1
    },
    {
      "sampler": 0,
      "source": 2
    }
  ],
  "images": [
    {
      "mimeType": "image/jpeg",
      "name": "barrel_stove_nor_gl",
      "uri": "textures/barrel_stove_nor_gl_1k.jpg"
    },
    {
      "mimeType": "image/jpeg",
      "name": "barrel_stove_diff",
      "uri": "textures/barrel_stove_diff_1k.jpg"
    },
    {
      "mimeType": "image/jpeg",
      "name": "barrel_stove_metal-barrel_stove_rough",
      "uri": "textures/barrel_stove_arm_1k.jpg"
    }
  ],
  "accessors": [
    {
      "bufferView": 0,
      "componentType": 5126,
      "count": 6637,
      "max": [
        0.29628369212150574,
        0.8556039333343506,
        0.2962835729122162
      ],
      "min": [
        -0.29628369212150574,
        0,
        -0.2962838113307953
      ],
      "type": "VEC3"
    },
    {
      "bufferView": 1,
      "componentType": 5126,
      "count": 6637,
      "type": "VEC3"
    },
    {
      "bufferView": 2,
      "componentType": 5126,
      "count": 6637,
      "type": "VEC2"
    },
    {
      "bufferView": 3,
      "componentType": 5123,
      "count": 27648,
      "type": "SCALAR"
    }
  ],
  "bufferViews": [
    {
      "buffer": 0,
      "byteLength": 79644,
      "byteOffset": 0,
      "target": 34962
    },
    {
      "buffer": 0,
      "byteLength": 79644,
      "byteOffset": 79644,
      "target": 34962
    },
    {
      "buffer": 0,
      "byteLength": 53096,
      "byteOffset": 159288,
      "target": 34962
    },
    {
      "buffer": 0,
      "byteLength": 55296,
      "byteOffset": 212384,
      "target": 34963
    }
  ],
  "samplers": [
    {
      "magFilter": 9729,
      "minFilter": 9987
    }
  ],
  "buffers": [
    {
      "byteLength": 267680,
      "uri": "barrel_stove.bin"
    }
  ]
}